# xmcd
#
# Track frame offsets: 
#        150
#        20722
#        43455
#        64667
#        85595
#        106132
#        132992
#        152792
#        175478
#        198312
#        216832
#
# Disc length: 3209 seconds
#
# Revision: 0
# Processed by: cddbd v1.5.2PL0 Copyright (c) Steve Scherf et al.
# Submitted via: ExactAudioCopy v0.95b4
#
DISCID=9b0c870b
DTITLE=Various Artist - The World Sings KUBOTA
DYEAR=2008
DGENRE=R&B
TTITLE0=Stevie B - Missing
TTITLE1=Jon Secada - Summer Eyes
TTITLE2=Caron Wheeler - Candy Rain
TTITLE3=Peabo Bryson - Lost Love
TTITLE4=Diana King - Bring On The Rain
TTITLE5=Patti Austin - Dreamers
TTITLE6=Arrested Development - Messenger's Rhyme
TTITLE7=Take 6 - Indigo Waltz
TTITLE8=Pauline Wilson - Cry On Your Smile
TTITLE9=Jade Valerie - LA LA LA Love Song
TTITLE10=Swing Out Sister - Be Wannabe
EXTD=
EXTT0=
EXTT1=
EXTT2=
EXTT3=
EXTT4=
EXTT5=
EXTT6=
EXTT7=
EXTT8=
EXTT9=
EXTT10=
PLAYORDER=
